<svg width="136" height="39" viewBox="0 0 136 39" fill="none" xmlns="http://www.w3.org/2000/svg">
<path d="M12.7415 21.3513L0 34.273L0.000237604 38.7569H8.31345L25.4811 21.3513H12.7415Z" fill="#005CA9"/>
<path d="M21.0606 0.000732422L0.00354004 21.3528L0.00354004 34.2717L33.801 0.000732422L21.0606 0.000732422Z" fill="#FFD800"/>
<path d="M0.00354004 2.19029e-05L0.00354004 8.4335L8.32003 0L0.00354004 2.19029e-05Z" fill="#FFD800"/>
<path d="M38.2213 21.3513L21.058 38.7569H25.48H33.7932L50.9608 21.3513H38.2213Z" fill="#005CA9"/>
<path d="M46.539 0.000732422L25.4819 21.3528L25.4819 34.2716L59.2794 0.000732422L46.539 0.000732422Z" fill="#FFD800"/>
<path d="M63.7024 21.3513L46.5391 38.7569H50.9611H59.2743L76.4419 21.3513H63.7024Z" fill="#005CA9"/>
<path d="M72.0199 0.000732422L50.9628 21.3528V34.2716L84.7603 0.000732422L72.0199 0.000732422Z" fill="#FFD800"/>
<path d="M89.1843 21.3513L72.021 38.7569H76.443H84.7562L101.924 21.3513H89.1843Z" fill="#005CA9"/>
<path d="M97.5005 0.000732422L76.4434 21.3528V34.2716L110.241 0.000732422L97.5005 0.000732422Z" fill="#FFD800"/>
<path d="M114.665 21.3513L97.5017 38.7569H101.924H110.237L127.405 21.3513H114.665Z" fill="#005CA9"/>
<path d="M135.722 25.8416L122.98 38.7576H127.402L135.722 38.7576V25.8416Z" fill="#005CA9"/>
<path d="M122.983 0.000732422L101.926 21.3528V34.2716L135.723 0.000732422L122.983 0.000732422Z" fill="#FFD800"/>
<path d="M135.723 12.9199L127.406 21.3531V34.272L135.723 25.8388V12.9199Z" fill="#FFD800"/>
</svg>
